<?xml version="1.0"?>
<svg xmlns="http://www.w3.org/2000/svg" viewBox="0 0 57.13 18.66">
  <defs>
    <style>.cls-1{fill:#3f7cc4;}</style>
  </defs>
  <title>Asset 1</title>
  <g id="Layer_2">
    <g id="Layer_1-2">
      <path class="cls-1" d="M8.38,11l.2-1h8l-.19,1.11-1.5.88v3.64a6.11,6.11,0,0,1-1.58,1.57,8.06,8.06,0,0,1-2.24,1.08,8.61,8.61,0,0,1-2.58.39A11.26,11.26,0,0,1,5,18.2a7.51,7.51,0,0,1-2.72-1.65A6.87,6.87,0,0,1,.6,13.83a10.51,10.51,0,0,1-.6-3.6A11.94,11.94,0,0,1,.8,5.86,8.3,8.3,0,0,1,3.37,2.36,7.16,7.16,0,0,1,5.79,1.1a9.84,9.84,0,0,1,3-.44,16.92,16.92,0,0,1,1.74.09A13.73,13.73,0,0,1,12.13,1L13.9.84l.51,4.58L13,5.68,12,3.33a5,5,0,0,0-1.67-.69A8.36,8.36,0,0,0,6.4,2.58a2.88,2.88,0,0,0-1.28.56A5,5,0,0,0,3.84,5.5a15.11,15.11,0,0,0-.46,4.07,10.91,10.91,0,0,0,.47,3.25,5.53,5.53,0,0,0,1.4,2.41,4.71,4.71,0,0,0,1.8,1.18,6.25,6.25,0,0,0,2,.32,7.45,7.45,0,0,0,1.47-.16,3.25,3.25,0,0,0,1.21-.46V11.87Z"/>
      <path class="cls-1" d="M19.46,16.55V8.65l-1.83-1L17.74,7l4.72-.77V16.6l1.88.72-.2.9H17.53l.19-1ZM21.33,4.16A2.29,2.29,0,0,1,20.55,4a4.71,4.71,0,0,1-.9-.46,1.25,1.25,0,0,1-.5-.5.72.72,0,0,1,0-.17,2.24,2.24,0,0,1,.2-.8,4.78,4.78,0,0,1,.48-.9,1.22,1.22,0,0,1,.49-.48l.19,0a2.16,2.16,0,0,1,.8.2,4.72,4.72,0,0,1,.88.48,1.27,1.27,0,0,1,.47.48.7.7,0,0,1,0,.16,2.24,2.24,0,0,1-.2.8,4.73,4.73,0,0,1-.49.9,1.25,1.25,0,0,1-.5.48Z"/>
      <path class="cls-1" d="M25.2,1.32l.11-.58L30,0V16.6l1.93.72-.21.9H25.16l.2-1L27,16.55V2.36Z"/>
      <path class="cls-1" d="M41.81,14.52l1.35-.09,0,3.79H33.56L33,17l7.31-9.36-4.48.28-.87,2L33.57,10V6.46h9.27L43.4,8,36.46,17,41,16.69Z"/>
      <path class="cls-1" d="M45.49,13.32a2.92,2.92,0,0,1,1.44-1.14,6.31,6.31,0,0,1,1.6-.42,12.87,12.87,0,0,1,1.84-.14,12.58,12.58,0,0,1,1.61.1v-.67a9,9,0,0,0-.22-2,2,2,0,0,0-.86-1.32,1.8,1.8,0,0,0-.61-.22,4.07,4.07,0,0,0-.79-.07,3.21,3.21,0,0,0-.73.09l-.38,2.18a2.24,2.24,0,0,1-.53.35,1.22,1.22,0,0,1-.51.14,1.5,1.5,0,0,1-.76-.29,3.12,3.12,0,0,1-.78-.71,1.32,1.32,0,0,1-.33-.79.87.87,0,0,1,.42-.64,5.13,5.13,0,0,1,1-.58,11.27,11.27,0,0,1,2.42-.71,12.53,12.53,0,0,1,2.15-.27,3.31,3.31,0,0,1,2.69,1A4.14,4.14,0,0,1,55,9.88V15.8a3.79,3.79,0,0,0,2.15,1.28l-.16.72a7.87,7.87,0,0,1-3.19.74,7.74,7.74,0,0,0-.63-1.08,4.32,4.32,0,0,0-.83-.87,4.27,4.27,0,0,1-1,.93,5.66,5.66,0,0,1-1.36.73,4.35,4.35,0,0,1-1.55.28,3.52,3.52,0,0,1-2-.5,2.91,2.91,0,0,1-1.1-1.25,3.73,3.73,0,0,1-.34-1.55A3.69,3.69,0,0,1,45.49,13.32Zm3.93,3.45a5.82,5.82,0,0,0,1.3-.19A6.87,6.87,0,0,0,52,16.18V12.53a13.72,13.72,0,0,0-1.88.33,6.73,6.73,0,0,0-1.26.44,2,2,0,0,0-.59.39,1.33,1.33,0,0,0-.2.8,3.12,3.12,0,0,0,.3,1.26,1.83,1.83,0,0,0,.69.89A.55.55,0,0,0,49.42,16.78Z"/>
    </g>
  </g>
</svg>
